<svg width="56" height="56" viewBox="0 0 56 56" fill="none" xmlns="http://www.w3.org/2000/svg">
<path d="M51.1466 39.0836C50.3766 45.2902 45.29 50.3769 39.0833 51.1469C35.3266 51.6136 31.8266 50.5869 29.0966 48.5802C27.5333 47.4369 27.9066 45.0102 29.7733 44.4502C36.7966 42.3269 42.3266 36.7736 44.4733 29.7502C45.0333 27.9069 47.46 27.5336 48.6033 29.0736C50.5866 31.8269 51.6133 35.3269 51.1466 39.0836Z" fill="#FAFAFA"/>
<path d="M23.31 4.6665C13.02 4.6665 4.66663 13.0198 4.66663 23.3098C4.66663 33.5998 13.02 41.9532 23.31 41.9532C33.6 41.9532 41.9533 33.5998 41.9533 23.3098C41.93 13.0198 33.6 4.6665 23.31 4.6665ZM21.1166 20.6965L26.74 22.6565C28.77 23.3798 29.75 24.8032 29.75 26.9965C29.75 29.5165 27.7433 31.5932 25.2933 31.5932H25.0833V31.7098C25.0833 32.6665 24.29 33.4598 23.3333 33.4598C22.3766 33.4598 21.5833 32.6665 21.5833 31.7098V31.5698C18.9933 31.4532 16.9166 29.2832 16.9166 26.5765C16.9166 25.6198 17.71 24.8265 18.6666 24.8265C19.6233 24.8265 20.4166 25.6198 20.4166 26.5765C20.4166 27.4165 21.0233 28.0932 21.77 28.0932H25.27C25.8066 28.0932 26.2266 27.6032 26.2266 26.9965C26.2266 26.1798 26.0866 26.1332 25.55 25.9465L19.9266 23.9865C17.92 23.2865 16.9166 21.8632 16.9166 19.6465C16.9166 17.1265 18.9233 15.0498 21.3733 15.0498H21.5833V14.9565C21.5833 13.9998 22.3766 13.2065 23.3333 13.2065C24.29 13.2065 25.0833 13.9998 25.0833 14.9565V15.0965C27.6733 15.2132 29.75 17.3832 29.75 20.0898C29.75 21.0465 28.9566 21.8398 28 21.8398C27.0433 21.8398 26.25 21.0465 26.25 20.0898C26.25 19.2498 25.6433 18.5732 24.8966 18.5732H21.3966C20.86 18.5732 20.44 19.0632 20.44 19.6698C20.4166 20.4632 20.5566 20.5098 21.1166 20.6965Z" fill="#FAFAFA"/>
</svg>
