<svg width="56" height="56" viewBox="0 0 56 56" fill="none" xmlns="http://www.w3.org/2000/svg">
<path d="M51.3333 11.3168V39.0601C51.3333 41.3234 49.49 43.4001 47.2267 43.6801L46.5033 43.7734C42.6767 44.2868 37.2867 45.8734 32.9467 47.6934C31.43 48.3234 29.75 47.1801 29.75 45.5234V13.0668C29.75 12.2034 30.24 11.4101 31.01 10.9901C35.28 8.68008 41.7433 6.62675 46.13 6.25342H46.27C49.07 6.25342 51.3333 8.51675 51.3333 11.3168Z" fill="#FAFAFA"/>
<path d="M24.99 10.9901C20.72 8.68008 14.2566 6.62675 9.86998 6.25342H9.70664C6.90664 6.25342 4.64331 8.51675 4.64331 11.3168V39.0601C4.64331 41.3234 6.48664 43.4001 8.74998 43.6801L9.47331 43.7734C13.3 44.2868 18.69 45.8734 23.03 47.6934C24.5466 48.3234 26.2266 47.1801 26.2266 45.5234V13.0668C26.2266 12.1801 25.76 11.4101 24.99 10.9901ZM11.6666 18.0601H16.9166C17.8733 18.0601 18.6666 18.8534 18.6666 19.8101C18.6666 20.7901 17.8733 21.5601 16.9166 21.5601H11.6666C10.71 21.5601 9.91664 20.7901 9.91664 19.8101C9.91664 18.8534 10.71 18.0601 11.6666 18.0601ZM18.6666 28.5601H11.6666C10.71 28.5601 9.91664 27.7901 9.91664 26.8101C9.91664 25.8534 10.71 25.0601 11.6666 25.0601H18.6666C19.6233 25.0601 20.4166 25.8534 20.4166 26.8101C20.4166 27.7901 19.6233 28.5601 18.6666 28.5601Z" fill="#FAFAFA"/>
</svg>
