<svg width="56" height="56" viewBox="0 0 56 56" fill="none" xmlns="http://www.w3.org/2000/svg">
<g clipPath="url(#clip0_361_565)">
<path d="M26.7653 26.6898C27.4458 27.4092 28.5542 27.4092 29.2444 26.6898L39.8319 15.587C42.9042 12.3592 42.7292 7.01198 39.2875 4.03698C36.2931 1.44115 31.8306 1.90781 29.0889 4.78559L28 5.92309L26.9208 4.79531C24.1792 1.90781 19.7167 1.44115 16.7222 4.03698C13.2903 7.01198 13.1056 12.3592 16.1778 15.587L26.7653 26.6898ZM54.9597 34.2342C53.8125 33.1939 52.0236 33.262 50.8181 34.2342L41.8347 41.4189C40.7361 42.3036 39.3653 42.78 37.9458 42.78H26.4444C25.5889 42.78 24.8889 42.08 24.8889 41.2245C24.8889 40.3689 25.5889 39.6689 26.4444 39.6689H34.0569C35.6028 39.6689 37.0417 38.6092 37.2944 37.0828C37.6153 35.1384 36.1181 33.4467 34.2222 33.4467H18.6667C16.0417 33.4467 13.5042 34.3509 11.4625 36.0036L6.94167 39.6689H1.55556C0.7 39.6689 0 40.3689 0 41.2245V50.5578C0 51.4134 0.7 52.1134 1.55556 52.1134H36.2444C37.6542 52.1134 39.025 51.637 40.1333 50.7523L54.8333 38.9884C56.3111 37.812 56.4278 35.5564 54.9597 34.2342Z" fill="#FAFAFA"/>
</g>
<defs>
<clipPath id="clip0_361_565">
<rect width="56" height="56" fill="white"/>
</clipPath>
</defs>
</svg>
