<svg width="32" height="32" viewBox="0 0 32 32" fill="none" xmlns="http://www.w3.org/2000/svg">
<path d="M15.9998 2.6665C8.65317 2.6665 2.6665 8.65317 2.6665 15.9998C2.6665 23.3465 8.65317 29.3332 15.9998 29.3332C23.3465 29.3332 29.3332 23.3465 29.3332 15.9998C29.3332 8.65317 23.3465 2.6665 15.9998 2.6665ZM20.4798 19.0665C20.8665 19.4532 20.8665 20.0932 20.4798 20.4798C20.2798 20.6798 20.0265 20.7732 19.7732 20.7732C19.5198 20.7732 19.2665 20.6798 19.0665 20.4798L15.9998 17.4132L12.9332 20.4798C12.7332 20.6798 12.4798 20.7732 12.2265 20.7732C11.9732 20.7732 11.7198 20.6798 11.5198 20.4798C11.1332 20.0932 11.1332 19.4532 11.5198 19.0665L14.5865 15.9998L11.5198 12.9332C11.1332 12.5465 11.1332 11.9065 11.5198 11.5198C11.9065 11.1332 12.5465 11.1332 12.9332 11.5198L15.9998 14.5865L19.0665 11.5198C19.4532 11.1332 20.0932 11.1332 20.4798 11.5198C20.8665 11.9065 20.8665 12.5465 20.4798 12.9332L17.4132 15.9998L20.4798 19.0665Z" fill="#1F59C9"/>
</svg>
